<svg width="365.35500488281247px" height="72.8275390625px" xmlns="http://www.w3.org/2000/svg" viewBox="67.32249755859377 38.58623046875 365.35500488281247 72.8275390625" style="background: rgba(0, 0, 0, 0);" preserveAspectRatio="xMidYMid"><defs><filter id="editing-extrude-glow"><feFlood flood-color="#333333" result="flood-1"></feFlood><feMorphology operator="erode" radius="1" in="SourceAlpha" result="erode"></feMorphology><feComposite operator="in" in="flood-1" in2="erode" result="comp1"></feComposite><feConvolveMatrix order="3,3" divisor="1" in="comp1" result="convolve" kernelMatrix="0 0 0 1 1 1 0 0 0"></feConvolveMatrix><feOffset dx="-3" dy="0" in="convolve" result="extrude"></feOffset><feComposite operator="in" in="flood-1" in2="extrude" result="comp-extrude"></feComposite><feFlood flood-color="#000000" result="flood-2"></feFlood><feComposite operator="in" in="flood-2" in2="SourceAlpha" result="comp2"></feComposite><feMorphology operator="dilate" radius="1" in="comp2" result="dilate"></feMorphology><feOffset dx="-4.5" dy="0" in="dilate" result="offset"></feOffset><feGaussianBlur in="offset" stdDeviation="5.8" result="blur"></feGaussianBlur><feComponentTransfer in="blur" result="shadow"><feFuncA type="linear" slope="0.8" intercept="-0.2"></feFuncA></feComponentTransfer><feMerge><feMergeNode in="shadow"></feMergeNode><feMergeNode in="comp-extrude"></feMergeNode><feMergeNode in="SourceGraphic"></feMergeNode></feMerge></filter></defs><g filter="url(#editing-extrude-glow)"><g transform="translate(123.33750121295452, 90.36000061035156)"><path d="M13.43-15.25L13.43-15.25L13.43-15.25Q13.93-16.24 13.93-17.16L13.93-17.16L13.93-17.16Q13.93-18.08 13.83-18.60L13.83-18.60L13.83-18.60Q13.73-19.11 13.50-19.50L13.50-19.50L13.50-19.50Q13.00-20.36 12.01-20.36L12.01-20.36L12.01-20.36Q10.79-20.36 9.80-19.47L9.80-19.47L9.80-19.47Q8.75-18.55 8.75-17.09L8.75-17.09L8.75-17.09Q8.75-16.17 9.39-15.46L9.39-15.46L9.39-15.46Q10.03-14.75 11.02-14.09L11.02-14.09L11.02-14.09Q12.01-13.43 13.13-12.77L13.13-12.77L13.13-12.77Q14.26-12.11 15.25-11.32L15.25-11.32L15.25-11.32Q17.52-9.50 17.52-7.06L17.52-7.06L17.52-7.06Q17.52-5.41 16.65-4.01L16.65-4.01L16.65-4.01Q15.77-2.61 14.32-1.58L14.32-1.58L14.32-1.58Q11.15 0.66 6.96 0.66L6.96 0.66L6.96 0.66Q3.56 0.66 1.82-0.45L1.82-0.45L1.82-0.45Q0.07-1.55 0.07-3.23L0.07-3.23L0.07-3.23Q0.07-6.24 2.41-7.00L2.41-7.00L2.41-7.00Q3.07-7.23 4.08-7.23L4.08-7.23L4.08-7.23Q5.08-7.23 6.24-6.80L6.24-6.80L6.24-6.80Q5.71-5.45 5.71-4.22L5.71-4.22L5.71-4.22Q5.71-1.58 7.59-1.58L7.59-1.58L7.59-1.58Q8.81-1.58 9.82-2.48L9.82-2.48L9.82-2.48Q10.82-3.37 10.82-4.37L10.82-4.37L10.82-4.37Q10.82-5.38 10.18-6.11L10.18-6.11L10.18-6.11Q9.54-6.83 8.58-7.41L8.58-7.41L8.58-7.41Q7.62-7.99 6.52-8.55L6.52-8.55L6.52-8.55Q5.41-9.11 4.46-9.90L4.46-9.90L4.46-9.90Q2.21-11.71 2.21-14.62L2.21-14.62L2.21-14.62Q2.21-16.50 3.14-17.97L3.14-17.97L3.14-17.97Q4.06-19.44 5.54-20.43L5.54-20.43L5.54-20.43Q8.51-22.44 12.16-22.44L12.16-22.44L12.16-22.44Q15.81-22.44 17.57-21.35L17.57-21.35L17.57-21.35Q19.34-20.26 19.34-18.41L19.34-18.41L19.34-18.41Q19.34-16.80 18.08-15.77L18.08-15.77L18.08-15.77Q17.00-14.92 15.68-14.92L15.68-14.92L15.68-14.92Q14.36-14.92 13.43-15.25ZM20.56-3.30L20.56-3.30L20.56-3.30Q20.56-4.19 21.02-6.44L21.02-6.44L22.77-15.35L20.82-15.35L20.96-16.34L20.96-16.34Q24.92-17.52 28.74-20.43L28.74-20.43L30.33-20.43L29.54-16.83L32.11-16.83L31.81-15.35L29.27-15.35L27.59-6.44L27.59-6.44Q27.16-4.39 27.16-3.70L27.16-3.70L27.16-3.70Q27.16-2.11 28.55-1.78L28.55-1.78L28.55-1.78Q28.22-0.66 27.03 0L27.03 0L27.03 0Q25.84 0.66 24.16 0.66L24.16 0.66L24.16 0.66Q22.47 0.66 21.52-0.40L21.52-0.40L21.52-0.40Q20.56-1.45 20.56-3.30ZM33.25-0.99L33.25-0.99L33.25-0.99Q32.47-1.85 32.13-3.20L32.13-3.20L32.13-3.20Q31.78-4.55 31.78-6.77L31.78-6.77L31.78-6.77Q31.78-8.98 32.54-10.99L32.54-10.99L32.54-10.99Q33.30-13.00 34.68-14.45L34.68-14.45L34.68-14.45Q37.52-17.49 42.21-17.49L42.21-17.49L42.21-17.49Q43.89-17.49 45.11-16.93L45.11-16.93L50.75-17.49L48.31-4.62L48.31-4.62Q48.21-4.22 48.21-3.50L48.21-3.50L48.21-3.50Q48.21-2.77 48.66-2.31L48.66-2.31L48.66-2.31Q49.10-1.85 49.76-1.78L49.76-1.78L49.76-1.78Q49.43-0.66 48.23 0L48.23 0L48.23 0Q47.03 0.66 45.67 0.66L45.67 0.66L45.67 0.66Q44.32 0.66 43.41 0.15L43.41 0.15L43.41 0.15Q42.50-0.36 42.24-1.22L42.24-1.22L42.24-1.22Q41.71-0.40 40.59 0.13L40.59 0.13L40.59 0.13Q39.47 0.66 37.97 0.66L37.97 0.66L37.97 0.66Q36.47 0.66 35.24 0.26L35.24 0.26L35.24 0.26Q34.02-0.13 33.25-0.99ZM40.21-14.39L40.21-14.39L40.21-14.39Q39.83-13.79 39.50-12.79L39.50-12.79L39.50-12.79Q39.17-11.78 38.63-9.09L38.63-9.09L38.63-9.09Q38.08-6.40 38.08-4.49L38.08-4.49L38.08-4.49Q38.08-2.57 38.38-2.01L38.38-2.01L38.38-2.01Q38.68-1.45 39.20-1.45L39.20-1.45L39.20-1.45Q40.26-1.45 41.04-2.46L41.04-2.46L41.04-2.46Q41.81-3.47 42.11-5.25L42.11-5.25L43.86-14.92L43.86-14.92Q43.16-15.51 42.36-15.51L42.36-15.51L42.36-15.51Q41.55-15.51 41.07-15.25L41.07-15.25L41.07-15.25Q40.59-14.98 40.21-14.39ZM66.50 0.66L66.50 0.66L66.50 0.66Q62.50 0.66 62.50-2.44L62.50-2.44L62.50-2.44Q62.54-3.30 62.80-4.75L62.80-4.75L63.39-7.79L63.39-7.79Q64.28-12.08 64.28-13.04L64.28-13.04L64.28-13.04Q64.28-14.95 63.16-14.95L63.16-14.95L63.16-14.95Q61.28-14.95 60.29-10.03L60.29-10.03L58.34 0L51.71 0.66L55.14-16.86L60.55-17.49L60.03-14.26L60.03-14.26Q61.58-17.49 66.33-17.49L66.33-17.49L66.33-17.49Q68.64-17.49 69.61-16.52L69.61-16.52L69.61-16.52Q70.59-15.54 70.59-13.37L70.59-13.37L70.59-13.37Q70.59-11.32 69.53-6.53L69.53-6.53L69.53-6.53Q69.04-4.39 69.04-3.58L69.04-3.58L69.04-3.58Q69.04-2.77 69.48-2.31L69.48-2.31L69.48-2.31Q69.93-1.85 70.59-1.78L70.59-1.78L70.59-1.78Q70.26-0.66 69.12 0L69.12 0L69.12 0Q67.98 0.66 66.50 0.66ZM81.11-1.82L81.11-1.82L81.11-1.82Q80.09 0.66 76.82 0.66L76.82 0.66L76.82 0.66Q75.17 0.66 74.12-0.49L74.12-0.49L74.12-0.49Q73.26-1.45 73.26-2.54L73.26-2.54L73.26-2.54Q73.26-5.02 74.41-10.43L74.41-10.43L76.82-23.10L83.52-23.76L80.32-7.06L80.32-7.06Q79.76-4.62 79.76-3.76L79.76-3.76L79.76-3.76Q79.76-1.88 81.11-1.82ZM97.28-5.58L97.28-5.58L97.28-5.58Q98.11-5.02 98.11-3.78L98.11-3.78L98.11-3.78Q98.11-2.54 97.48-1.75L97.48-1.75L97.48-1.75Q96.86-0.96 95.83-0.43L95.83-0.43L95.83-0.43Q93.72 0.66 91.44 0.66L91.44 0.66L91.44 0.66Q89.17 0.66 87.83 0.17L87.83 0.17L87.83 0.17Q86.49-0.33 85.60-1.25L85.60-1.25L85.60-1.25Q83.85-3.00 83.85-6.20L83.85-6.20L83.85-6.20Q83.85-11.19 86.56-14.22L86.56-14.22L86.56-14.22Q89.46-17.49 94.51-17.49L94.51-17.49L94.51-17.49Q97.65-17.49 99.20-16.17L99.20-16.17L99.20-16.17Q100.35-15.18 100.35-13.56L100.35-13.56L100.35-13.56Q100.35-7.76 90.32-7.76L90.32-7.76L90.32-7.76Q90.19-6.90 90.19-6.17L90.19-6.17L90.19-6.17Q90.19-4.65 90.87-4.08L90.87-4.08L90.87-4.08Q91.54-3.50 92.80-3.50L92.80-3.50L92.80-3.50Q94.05-3.50 95.39-4.08L95.39-4.08L95.39-4.08Q96.72-4.65 97.28-5.58ZM90.55-9.17L90.55-9.17L90.55-9.17Q92.90-9.17 94.25-10.63L94.25-10.63L94.25-10.63Q95.60-12.01 95.60-14.22L95.60-14.22L95.60-14.22Q95.60-14.98 95.32-15.39L95.32-15.39L95.32-15.39Q95.04-15.81 94.48-15.81L94.48-15.81L94.48-15.81Q93.92-15.81 93.44-15.59L93.44-15.59L93.44-15.59Q92.96-15.38 92.47-14.65L92.47-14.65L92.47-14.65Q91.25-13.00 90.55-9.17ZM111.97-3.73L111.97-3.73L111.97-3.73Q110.25-1.95 107.12-1.95L107.12-1.95L107.12-1.95Q103.19-1.95 102.37-4.82L102.37-4.82L102.37-4.82Q102.10-5.68 102.10-6.63L102.10-6.63L102.10-6.63Q102.10-7.59 102.30-8.58L102.30-8.58L103.85-16.83L110.55-17.49L108.73-7.89L108.73-7.89Q108.67-7.46 108.57-7.00L108.57-7.00L108.57-7.00Q108.47-6.53 108.47-6.06L108.47-6.06L108.47-6.06Q108.47-5.58 108.64-5.26L108.64-5.26L108.64-5.26Q108.80-4.95 109.03-4.75L109.03-4.75L109.03-4.75Q109.43-4.49 110.14-4.49L110.14-4.49L110.14-4.49Q110.85-4.49 111.46-5.35L111.46-5.35L111.46-5.35Q112.07-6.20 112.37-7.69L112.37-7.69L114.18-16.83L120.68-17.49L118.21-4.52L118.21-4.52Q116.98 1.82 114.48 4.32L114.48 4.32L114.48 4.32Q113.19 5.61 111.52 6.12L111.52 6.12L111.52 6.12Q109.86 6.63 107.71 6.63L107.71 6.63L107.71 6.63Q104.25 6.63 102.27 5.54L102.27 5.54L102.27 5.54Q100.29 4.46 100.29 2.64L100.29 2.64L100.29 2.64Q100.29 1.29 101.31 0.51L101.31 0.51L101.31 0.51Q102.33-0.26 103.92-0.26L103.92-0.26L103.92-0.26Q105.30-0.26 106.36 0.33L106.36 0.33L106.36 0.33Q106.99 0.69 107.28 1.16L107.28 1.16L107.28 1.16Q106.52 1.82 106.52 2.90L106.52 2.90L106.52 2.90Q106.52 4.36 107.84 4.36L107.84 4.36L107.84 4.36Q110.02 4.36 111.28-0.66L111.28-0.66L111.28-0.66Q111.64-2.15 111.97-3.73ZM126.98-15.21L123.49-15.21L123.49-15.21Q124.71-19.44 124.77-23.89L124.77-23.89L125.73-24.02L125.73-24.02Q126.23-24.09 126.59-24.09L126.59-24.09L126.59-24.09Q128.04-24.09 128.83-23.38L128.83-23.38L128.83-23.38Q129.62-22.67 129.62-21.42L129.62-21.42L129.62-21.42Q129.62-20.10 129.03-18.64L129.03-18.64L129.03-18.64Q127.97-16.07 126.98-15.21L126.98-15.21ZM139.09-11.58L139.09-11.58L139.09-11.58Q139.56-12.80 139.56-13.86L139.56-13.86L139.56-13.86Q139.56-15.81 137.97-15.81L137.97-15.81L137.97-15.81Q137.15-15.81 136.47-15.06L136.47-15.06L136.47-15.06Q135.80-14.32 135.80-13.40L135.80-13.40L135.80-13.40Q135.80-12.74 136.32-12.21L136.32-12.21L136.32-12.21Q137.08-11.48 139.03-10.30L139.03-10.30L139.03-10.30Q140.98-9.11 141.72-8.13L141.72-8.13L141.72-8.13Q142.46-7.16 142.46-5.82L142.46-5.82L142.46-5.82Q142.46-4.49 141.82-3.27L141.82-3.27L141.82-3.27Q141.17-2.05 140.02-1.19L140.02-1.19L140.02-1.19Q137.54 0.66 133.58 0.66L133.58 0.66L133.58 0.66Q131.44 0.66 129.79-0.46L129.79-0.46L129.79-0.46Q128.14-1.55 128.14-2.84L128.14-2.84L128.14-2.84Q128.14-4.13 129.08-4.88L129.08-4.88L129.08-4.88Q130.02-5.64 131.41-5.64L131.41-5.64L131.41-5.64Q132.79-5.64 133.65-5.12L133.65-5.12L133.65-5.12Q133.22-4.03 133.22-3.30L133.22-3.30L133.22-3.30Q133.22-1.12 135.07-1.12L135.07-1.12L135.07-1.12Q135.86-1.12 136.39-1.62L136.39-1.62L136.39-1.62Q136.92-2.11 136.92-2.97L136.92-2.97L136.92-2.97Q136.92-4.65 134.08-6.44L134.08-6.44L134.08-6.44Q131.77-7.95 131.24-8.55L131.24-8.55L131.24-8.55Q130.35-9.60 130.35-10.92L130.35-10.92L130.35-10.92Q130.35-12.24 130.98-13.50L130.98-13.50L130.98-13.50Q131.60-14.75 132.76-15.64L132.76-15.64L132.76-15.64Q135.17-17.49 139.36-17.49L139.36-17.49L139.36-17.49Q141.50-17.49 142.77-16.63L142.77-16.63L142.77-16.63Q144.05-15.77 144.05-14.32L144.05-14.32L144.05-14.32Q144.05-12.87 143.17-12.04L143.17-12.04L143.17-12.04Q142.30-11.22 140.71-11.22L140.71-11.22L140.71-11.22Q139.62-11.22 139.09-11.58ZM164.93-15.25L164.93-15.25L164.93-15.25Q165.43-16.24 165.43-17.16L165.43-17.16L165.43-17.16Q165.43-18.08 165.33-18.60L165.33-18.60L165.33-18.60Q165.23-19.11 165-19.50L165-19.50L165-19.50Q164.51-20.36 163.52-20.36L163.52-20.36L163.52-20.36Q162.29-20.36 161.30-19.47L161.30-19.47L161.30-19.47Q160.25-18.55 160.25-17.09L160.25-17.09L160.25-17.09Q160.25-16.17 160.89-15.46L160.89-15.46L160.89-15.46Q161.54-14.75 162.53-14.09L162.53-14.09L162.53-14.09Q163.52-13.43 164.64-12.77L164.64-12.77L164.64-12.77Q165.76-12.11 166.75-11.32L166.75-11.32L166.75-11.32Q169.03-9.50 169.03-7.06L169.03-7.06L169.03-7.06Q169.03-5.41 168.15-4.01L168.15-4.01L168.15-4.01Q167.28-2.61 165.83-1.58L165.83-1.58L165.83-1.58Q162.66 0.66 158.47 0.66L158.47 0.66L158.47 0.66Q155.07 0.66 153.32-0.45L153.32-0.45L153.32-0.45Q151.57-1.55 151.57-3.23L151.57-3.23L151.57-3.23Q151.57-6.24 153.91-7.00L153.91-7.00L153.91-7.00Q154.57-7.23 155.58-7.23L155.58-7.23L155.58-7.23Q156.59-7.23 157.74-6.80L157.74-6.80L157.74-6.80Q157.21-5.45 157.21-4.22L157.21-4.22L157.21-4.22Q157.21-1.58 159.09-1.58L159.09-1.58L159.09-1.58Q160.31-1.58 161.32-2.48L161.32-2.48L161.32-2.48Q162.33-3.37 162.33-4.37L162.33-4.37L162.33-4.37Q162.33-5.38 161.68-6.11L161.68-6.11L161.68-6.11Q161.04-6.83 160.08-7.41L160.08-7.41L160.08-7.41Q159.13-7.99 158.02-8.55L158.02-8.55L158.02-8.55Q156.92-9.11 155.96-9.90L155.96-9.90L155.96-9.90Q153.71-11.71 153.71-14.62L153.71-14.62L153.71-14.62Q153.71-16.50 154.64-17.97L154.64-17.97L154.64-17.97Q155.56-19.44 157.05-20.43L157.05-20.43L157.05-20.43Q160.02-22.44 163.66-22.44L163.66-22.44L163.66-22.44Q167.31-22.44 169.08-21.35L169.08-21.35L169.08-21.35Q170.84-20.26 170.84-18.41L170.84-18.41L170.84-18.41Q170.84-16.80 169.59-15.77L169.59-15.77L169.59-15.77Q168.50-14.92 167.18-14.92L167.18-14.92L167.18-14.92Q165.86-14.92 164.93-15.25ZM172.06-3.30L172.06-3.30L172.06-3.30Q172.06-4.19 172.52-6.44L172.52-6.44L174.27-15.35L172.33-15.35L172.46-16.34L172.46-16.34Q176.42-17.52 180.25-20.43L180.25-20.43L181.83-20.43L181.04-16.83L183.61-16.83L183.32-15.35L180.77-15.35L179.09-6.44L179.09-6.44Q178.66-4.39 178.66-3.70L178.66-3.70L178.66-3.70Q178.66-2.11 180.05-1.78L180.05-1.78L180.05-1.78Q179.72-0.66 178.53 0L178.53 0L178.53 0Q177.34 0.66 175.66 0.66L175.66 0.66L175.66 0.66Q173.98 0.66 173.02-0.40L173.02-0.40L173.02-0.40Q172.06-1.45 172.06-3.30ZM190.51 0.66L190.51 0.66L190.51 0.66Q183.25 0.66 183.25-6.17L183.25-6.17L183.25-6.17Q183.25-11.02 185.92-14.16L185.92-14.16L185.92-14.16Q188.76-17.49 193.68-17.49L193.68-17.49L193.68-17.49Q197.24-17.49 199.06-15.84L199.06-15.84L199.06-15.84Q200.87-14.19 200.87-10.72L200.87-10.72L200.87-10.72Q200.87-5.45 198.03-2.38L198.03-2.38L198.03-2.38Q195.26 0.66 190.51 0.66ZM191.37-13.70L191.37-13.70L191.37-13.70Q190.97-12.80 190.66-11.47L190.66-11.47L190.66-11.47Q190.34-10.13 189.95-8.02L189.95-8.02L189.95-8.02Q189.55-5.91 189.55-3.30L189.55-3.30L189.55-3.30Q189.55-2.44 189.83-1.88L189.83-1.88L189.83-1.88Q190.11-1.32 190.87-1.32L190.87-1.32L190.87-1.32Q191.63-1.32 192.11-1.68L192.11-1.68L192.11-1.68Q192.59-2.05 192.95-2.90L192.95-2.90L192.95-2.90Q193.61-4.42 194.14-7.24L194.14-7.24L194.14-7.24Q194.67-10.07 194.72-11.29L194.72-11.29L194.72-11.29Q194.77-12.51 194.77-13.41L194.77-13.41L194.77-13.41Q194.77-14.32 194.50-14.92L194.50-14.92L194.50-14.92Q194.24-15.51 193.50-15.51L193.50-15.51L193.50-15.51Q192.75-15.51 192.26-15.05L192.26-15.05L192.26-15.05Q191.76-14.59 191.37-13.70ZM213.15-9.27L213.15-9.27L213.15-9.27Q214.34-11.38 214.34-13.53L214.34-13.53L214.34-13.53Q214.34-14.95 213.31-14.95L213.31-14.95L213.31-14.95Q212.52-14.95 211.69-13.60L211.69-13.60L211.69-13.60Q210.84-12.24 210.57-10.49L210.57-10.49L208.86 0L202.03 0.66L205.39-16.83L210.84-17.49L210.24-14.16L210.24-14.16Q211.86-17.49 215.49-17.49L215.49-17.49L215.49-17.49Q217.40-17.49 218.44-16.50L218.44-16.50L218.44-16.50Q219.48-15.51 219.48-13.48L219.48-13.48L219.48-13.48Q219.48-11.45 218.15-10.16L218.15-10.16L218.15-10.16Q216.81-8.88 214.53-8.88L214.53-8.88L214.53-8.88Q213.54-8.88 213.15-9.27ZM233.38-5.58L233.38-5.58L233.38-5.58Q234.20-5.02 234.20-3.78L234.20-3.78L234.20-3.78Q234.20-2.54 233.57-1.75L233.57-1.75L233.57-1.75Q232.95-0.96 231.92-0.43L231.92-0.43L231.92-0.43Q229.81 0.66 227.54 0.66L227.54 0.66L227.54 0.66Q225.26 0.66 223.92 0.17L223.92 0.17L223.92 0.17Q222.59-0.33 221.69-1.25L221.69-1.25L221.69-1.25Q219.95-3.00 219.95-6.20L219.95-6.20L219.95-6.20Q219.95-11.19 222.65-14.22L222.65-14.22L222.65-14.22Q225.56-17.49 230.60-17.49L230.60-17.49L230.60-17.49Q233.74-17.49 235.29-16.17L235.29-16.17L235.29-16.17Q236.45-15.18 236.45-13.56L236.45-13.56L236.45-13.56Q236.45-7.76 226.41-7.76L226.41-7.76L226.41-7.76Q226.28-6.90 226.28-6.17L226.28-6.17L226.28-6.17Q226.28-4.65 226.96-4.08L226.96-4.08L226.96-4.08Q227.63-3.50 228.89-3.50L228.89-3.50L228.89-3.50Q230.14-3.50 231.48-4.08L231.48-4.08L231.48-4.08Q232.82-4.65 233.38-5.58ZM226.64-9.17L226.64-9.17L226.64-9.17Q228.99-9.17 230.34-10.63L230.34-10.63L230.34-10.63Q231.69-12.01 231.69-14.22L231.69-14.22L231.69-14.22Q231.69-14.98 231.41-15.39L231.41-15.39L231.41-15.39Q231.13-15.81 230.57-15.81L230.57-15.81L230.57-15.81Q230.01-15.81 229.53-15.59L229.53-15.59L229.53-15.59Q229.05-15.38 228.56-14.65L228.56-14.65L228.56-14.65Q227.34-13.00 226.64-9.17ZM247.43-11.58L247.43-11.58L247.43-11.58Q247.90-12.80 247.90-13.86L247.90-13.86L247.90-13.86Q247.90-15.81 246.31-15.81L246.31-15.81L246.31-15.81Q245.49-15.81 244.81-15.06L244.81-15.06L244.81-15.06Q244.13-14.32 244.13-13.40L244.13-13.40L244.13-13.40Q244.13-12.74 244.66-12.21L244.66-12.21L244.66-12.21Q245.42-11.48 247.37-10.30L247.37-10.30L247.37-10.30Q249.32-9.11 250.06-8.13L250.06-8.13L250.06-8.13Q250.80-7.16 250.80-5.82L250.80-5.82L250.80-5.82Q250.80-4.49 250.16-3.27L250.16-3.27L250.16-3.27Q249.51-2.05 248.36-1.19L248.36-1.19L248.36-1.19Q245.88 0.66 241.92 0.66L241.92 0.66L241.92 0.66Q239.78 0.66 238.13-0.46L238.13-0.46L238.13-0.46Q236.48-1.55 236.48-2.84L236.48-2.84L236.48-2.84Q236.48-4.13 237.42-4.88L237.42-4.88L237.42-4.88Q238.36-5.64 239.75-5.64L239.75-5.64L239.75-5.64Q241.13-5.64 241.99-5.12L241.99-5.12L241.99-5.12Q241.56-4.03 241.56-3.30L241.56-3.30L241.56-3.30Q241.56-1.12 243.41-1.12L243.41-1.12L243.41-1.12Q244.20-1.12 244.73-1.62L244.73-1.62L244.73-1.62Q245.26-2.11 245.26-2.97L245.26-2.97L245.26-2.97Q245.26-4.65 242.42-6.44L242.42-6.44L242.42-6.44Q240.11-7.95 239.58-8.55L239.58-8.55L239.58-8.55Q238.69-9.60 238.69-10.92L238.69-10.92L238.69-10.92Q238.69-12.24 239.32-13.50L239.32-13.50L239.32-13.50Q239.94-14.75 241.10-15.64L241.10-15.64L241.10-15.64Q243.51-17.49 247.70-17.49L247.70-17.49L247.70-17.49Q249.84-17.49 251.11-16.63L251.11-16.63L251.11-16.63Q252.38-15.77 252.38-14.32L252.38-14.32L252.38-14.32Q252.38-12.87 251.51-12.04L251.51-12.04L251.51-12.04Q250.64-11.22 249.05-11.22L249.05-11.22L249.05-11.22Q247.96-11.22 247.43-11.58Z" fill="#eb6c6c"></path></g></g><style>text {
  font-size: 64px;
  font-family: Arial Black;
  dominant-baseline: central;
  text-anchor: middle;
}</style></svg>