<svg width="336.73122558593747px" height="94.4175048828125px" xmlns="http://www.w3.org/2000/svg" viewBox="81.63438720703127 27.791247558593753 336.73122558593747 94.4175048828125" style="background: rgba(0, 0, 0, 0);" preserveAspectRatio="xMidYMid"><defs><filter id="editing-extrude-glow"><feFlood flood-color="#333333" result="flood-1"></feFlood><feMorphology operator="erode" radius="1" in="SourceAlpha" result="erode"></feMorphology><feComposite operator="in" in="flood-1" in2="erode" result="comp1"></feComposite><feConvolveMatrix order="3,3" divisor="1" in="comp1" result="convolve" kernelMatrix="0 0 0 1 1 1 0 0 0"></feConvolveMatrix><feOffset dx="-3" dy="0" in="convolve" result="extrude"></feOffset><feComposite operator="in" in="flood-1" in2="extrude" result="comp-extrude"></feComposite><feFlood flood-color="#000000" result="flood-2"></feFlood><feComposite operator="in" in="flood-2" in2="SourceAlpha" result="comp2"></feComposite><feMorphology operator="dilate" radius="1" in="comp2" result="dilate"></feMorphology><feOffset dx="-4.5" dy="0" in="dilate" result="offset"></feOffset><feGaussianBlur in="offset" stdDeviation="5.8" result="blur"></feGaussianBlur><feComponentTransfer in="blur" result="shadow"><feFuncA type="linear" slope="0.8" intercept="-0.2"></feFuncA></feComponentTransfer><feMerge><feMergeNode in="shadow"></feMergeNode><feMergeNode in="comp-extrude"></feMergeNode><feMergeNode in="SourceGraphic"></feMergeNode></feMerge></filter></defs><g filter="url(#editing-extrude-glow)"><g transform="translate(133.89531129598618, 97.72500038146973)"><path d="M15.66-24.93L15.66-24.93L15.84-26.32L15.84-26.32Q15.84-28.39 14.22-28.98L14.22-28.98L14.22-28.98Q12.96-29.38 12.29-29.38L12.29-29.38L12.24-29.38L12.24-29.38Q10.89-29.38 9.90-28.96L9.90-28.96L9.90-28.96Q8.91-28.53 8.46-27.90L8.46-27.90L8.46-27.90Q7.51-26.59 7.38-25.15L7.38-25.15L7.38-25.15Q7.38-23.45 8.91-22.21L8.91-22.21L8.91-22.21Q10.44-20.97 12.62-20.05L12.62-20.05L12.62-20.05Q14.80-19.13 16.99-18.04L16.99-18.04L16.99-18.04Q19.17-16.96 20.70-14.94L20.70-14.94L20.70-14.94Q22.23-12.91 22.23-10.08L22.23-10.08L22.23-10.08Q22.23-4.54 18.74-1.80L18.74-1.80L18.74-1.80Q15.25 0.94 10.82 0.94L10.82 0.94L10.82 0.94Q6.39 0.94 3.49-1.06L3.49-1.06L3.49-1.06Q0.58-3.06 0.58-6.43L0.58-6.43L0.58-6.48L0.58-6.48Q0.58-8.14 1.10-9.38L1.10-9.38L1.10-9.38Q1.62-10.62 2.34-11.21L2.34-11.21L2.34-11.21Q3.82-12.42 5.04-12.51L5.04-12.51L5.58-12.55L5.58-12.55Q6.84-12.55 7.88-11.95L7.88-11.95L7.88-11.95Q8.91-11.34 8.91-10.26L8.91-10.26L8.91-10.26Q8.91-9.72 8.32-9.36L8.32-9.36L8.32-9.36Q7.74-9 7.31-8.28L7.31-8.28L7.31-8.28Q6.88-7.56 6.84-7.06L6.84-7.06L6.75-6.57L6.75-6.57Q6.75-3.82 9.27-2.92L9.27-2.92L9.27-2.92Q10.17-2.61 10.71-2.61L10.71-2.61L10.71-2.61Q13.18-2.61 14.69-4.09L14.69-4.09L14.69-4.09Q16.20-5.58 16.20-7.88L16.20-7.88L16.20-7.88Q16.20-10.62 13.86-12.33L13.86-12.33L13.86-12.33Q12.11-13.59 10.06-14.45L10.06-14.45L10.06-14.45Q8.01-15.30 7.29-15.66L7.29-15.66L7.29-15.66Q6.57-16.02 5.76-16.52L5.76-16.52L5.76-16.52Q4.95-17.01 3.96-17.91L3.96-17.91L3.96-17.91Q1.80-19.80 1.80-23.02L1.80-23.02L1.80-23.02Q1.80-26.23 3.55-28.44L3.55-28.44L3.55-28.44Q6.71-32.45 13.00-32.45L13.00-32.45L13.00-32.45Q16.34-32.45 18.63-31.16L18.63-31.16L18.63-31.16Q20.93-29.88 20.93-27.63L20.93-27.63L20.93-27.63Q20.93-26.01 20.00-24.93L20.00-24.93L20.00-24.93Q19.08-23.85 17.64-23.85L17.64-23.85L17.64-23.85Q16.96-23.85 16.31-24.12L16.31-24.12L16.31-24.12Q15.66-24.39 15.66-24.93ZM23.63-17.55L23.63-17.55L23.76-19.35L23.76-19.35Q23.80-19.75 24.39-19.75L24.39-19.75L25.96-19.75L25.79-23.36L25.79-23.54L25.79-23.54Q25.79-24.57 27.36-25.52L27.36-25.52L27.36-25.52Q28.93-26.46 30.24-26.46L30.24-26.46L30.24-26.46Q30.64-26.46 30.64-26.10L30.64-26.10L30.64-26.05L30.64-26.05Q30.46-24.84 30.29-19.80L30.29-19.80L30.29-19.80Q32.27-19.80 32.80-19.89L32.80-19.89L32.80-19.89Q33.34-19.98 33.39-19.98L33.39-19.98L33.39-19.98Q33.70-19.98 33.70-19.44L33.70-19.44L33.70-19.44Q33.70-18.90 33.21-18.07L33.21-18.07L33.21-18.07Q32.71-17.23 32.13-17.19L32.13-17.19L30.24-17.19L30.24-17.19Q30.20-15.66 30.20-12.04L30.20-12.04L30.20-12.04Q30.20-8.41 30.26-6.08L30.26-6.08L30.26-6.08Q30.33-3.73 30.42-2.54L30.42-2.54L30.42-2.54Q30.51-1.35 30.62-0.63L30.62-0.63L30.62-0.63Q30.73 0.09 30.80 0.40L30.80 0.40L30.80 0.40Q30.87 0.72 30.87 0.81L30.87 0.81L30.87 0.81Q30.87 1.26 30.29 1.30L30.29 1.30L30.29 1.30Q28.53 1.30 26.80 0.81L26.80 0.81L26.80 0.81Q25.06 0.32 25.06-0.90L25.06-0.90L25.06-0.90Q26.01-8.46 26.01-17.14L26.01-17.14L26.01-17.14Q24.79-17.14 24.16-17.05L24.16-17.05L24.12-17.05L24.12-17.05Q23.71-17.05 23.63-17.55ZM49.41-13.50L49.41-13.50L49.32-7.74L49.32-7.74Q49.32-1.75 50.63-0.54L50.63-0.54L50.63-0.54Q50.80-0.36 50.80-0.14L50.80-0.14L50.80-0.14Q50.80 0.54 47.90 0.54L47.90 0.54L47.90 0.54Q45 0.54 44.82-1.17L44.82-1.17L44.82-1.17Q44.77-1.57 44.77-2.83L44.77-2.83L44.95-10.04L44.95-10.04Q44.95-10.35 44.59-10.35L44.59-10.35L44.59-10.35Q42.44-10.35 40.55-9.13L40.55-9.13L40.55-9.13Q38.66-7.92 38.66-6.03L38.66-6.03L38.66-6.03Q38.66-5.04 39.20-4.37L39.20-4.37L39.20-4.37Q39.73-3.69 40.52-3.69L40.52-3.69L40.52-3.69Q41.31-3.69 41.83-4.00L41.83-4.00L41.83-4.00Q42.34-4.32 42.44-4.37L42.44-4.37L42.44-4.37Q43.20-4.27 43.20-2.77L43.20-2.77L43.20-2.77Q43.20-1.26 41.80-0.34L41.80-0.34L41.80-0.34Q40.41 0.58 38.88 0.58L38.88 0.58L38.88 0.58Q37.35 0.58 36.25 0.04L36.25 0.04L36.25 0.04Q35.15-0.49 34.65-1.17L34.65-1.17L34.65-1.17Q34.16-1.84 33.84-2.70L33.84-2.70L33.84-2.70Q33.52-3.73 33.52-4.50L33.52-4.50L33.52-4.50Q33.52-7.65 35.51-9.54L35.51-9.54L35.51-9.54Q37.48-11.43 40.59-12.24L40.59-12.24L40.59-12.24Q44.69-13.05 44.87-13.72L44.87-13.72L44.87-13.72Q45-14.22 45-15.39L45-15.39L45-15.39Q45-17.77 42.57-17.77L42.57-17.77L42.57-17.77Q41.53-17.77 40.73-17.12L40.73-17.12L40.73-17.12Q39.91-16.47 39.91-15.48L39.91-15.48L40.19-14.40L40.19-14.40Q40.09-13.63 38.56-13.50L38.56-13.50L38.07-13.46L38.07-13.46Q36.72-13.46 35.93-14.13L35.93-14.13L35.93-14.13Q35.15-14.80 35.15-15.93L35.15-15.93L35.15-15.93Q35.15-16.65 35.62-17.53L35.62-17.53L35.62-17.53Q36.09-18.40 36.81-18.95L36.81-18.95L36.81-18.95Q37.53-19.48 39.04-19.91L39.04-19.91L39.04-19.91Q40.55-20.34 41.94-20.34L41.94-20.34L41.94-20.34Q43.34-20.34 44.10-20.25L44.10-20.25L44.10-20.25Q44.87-20.16 46.19-19.82L46.19-19.82L46.19-19.82Q47.52-19.48 48.40-18.54L48.40-18.54L48.40-18.54Q49.28-17.59 49.34-16.54L49.34-16.54L49.34-16.54Q49.41-15.48 49.41-13.50ZM52.16 0.32L52.16 0.32L52.16 0.32Q52.97-4.54 52.97-11.34L52.97-11.34L52.97-11.34Q52.97-18.13 52.56-20.16L52.56-20.16L52.56-20.16Q52.56-20.75 53.91-20.75L53.91-20.75L53.91-20.75Q55.98-20.75 56.66-19.17L56.66-19.17L56.66-19.17Q56.70-19.04 56.88-19.04L56.88-19.04L56.88-19.04Q57.06-19.04 57.15-19.13L57.15-19.13L57.15-19.13Q58.55-20.56 61.47-20.56L61.47-20.56L61.47-20.56Q64.39-20.56 66.11-19.08L66.11-19.08L66.11-19.08Q67.81-17.59 67.81-14.76L67.81-14.76L67.81-14.76Q67.81-13.05 67.52-9.90L67.52-9.90L67.52-9.90Q67.23-6.75 67.23-5.22L67.23-5.22L67.23-5.22Q67.23-1.57 68.44 0.04L68.44 0.04L68.44 0.04Q68.63 0.27 68.63 0.49L68.63 0.49L68.63 0.49Q68.63 1.08 67.36 1.08L67.36 1.08L67.36 1.08Q61.78 1.08 61.78-3.87L61.78-3.87L61.78-3.87Q61.78-5.76 62.64-9.13L62.64-9.13L62.64-9.13Q63.49-12.51 63.49-14.26L63.49-14.26L63.49-14.26Q63.49-17.86 60.52-17.86L60.52-17.86L60.52-17.86Q59.09-17.86 58.34-17.01L58.34-17.01L58.34-17.01Q57.60-16.16 57.51-15.05L57.51-15.05L57.51-15.05Q57.42-13.95 57.42-10.89L57.42-10.89L57.42-10.89Q57.42-6.21 57.73-2.75L57.73-2.75L57.83-1.75L57.83-1.75Q57.83-0.49 56.18 0.20L56.18 0.20L56.18 0.20Q54.54 0.90 53.35 0.90L53.35 0.90L53.35 0.90Q52.16 0.90 52.16 0.32ZM76.18-25.74L76.18-25.74L75.91-9.22L75.91-9.22Q75.91-1.48 76.41 0.04L76.41 0.04L76.41 0.04Q76.54 0.32 76.54 0.58L76.54 0.58L76.54 0.58Q76.54 1.13 75.24 1.13L75.24 1.13L75.24 1.13Q73.93 1.13 72.34 0.47L72.34 0.47L72.34 0.47Q70.74-0.18 70.74-1.21L70.74-1.21L70.74-1.21Q71.64-7.51 71.64-18.04L71.64-18.04L71.46-24.93L71.46-24.93Q71.37-26.19 70.94-27.09L70.94-27.09L70.94-27.09Q70.51-27.99 70.11-28.26L70.11-28.26L69.75-28.48L69.75-28.48Q69.43-28.66 69.43-28.89L69.43-28.89L69.43-28.89Q69.43-29.52 71.39-30.44L71.39-30.44L71.39-30.44Q73.35-31.36 75.19-31.36L75.19-31.36L75.19-31.36Q75.91-31.36 76.00-30.87L76.00-30.87L76.00-30.87Q76.18-29.70 76.18-25.74ZM83.52-11.43L83.52-11.43L83.56-10.30L83.56-10.30Q83.56-10.04 83.92-10.04L83.92-10.04L83.92-10.04Q85.36-10.17 86.44-10.78L86.44-10.78L86.44-10.78Q87.52-11.38 88.06-12.15L88.06-12.15L88.06-12.15Q89.14-13.81 89.23-15.03L89.23-15.03L89.28-15.57L89.28-15.57Q89.28-18 87.34-18L87.34-18L87.34-18Q85.91-18 85.00-16.74L85.00-16.74L85.00-16.74Q83.52-14.76 83.52-11.43ZM93.33-5.44L93.33-5.44L93.33-5.44Q93.33-3.73 92.63-2.45L92.63-2.45L92.63-2.45Q91.94-1.17 91.06-0.56L91.06-0.56L91.06-0.56Q90.18 0.04 89.01 0.40L89.01 0.40L89.01 0.40Q87.52 0.85 86.17 0.85L86.17 0.85L86.17 0.85Q82.39 0.85 80.59-1.98L80.59-1.98L80.59-1.98Q78.80-4.81 78.80-9.20L78.80-9.20L78.80-9.20Q78.80-13.59 81.02-17.01L81.02-17.01L81.02-17.01Q83.25-20.43 87.70-20.43L87.70-20.43L87.70-20.43Q91.75-20.43 93.19-17.59L93.19-17.59L93.19-17.59Q93.78-16.52 93.78-15.55L93.78-15.55L93.78-15.55Q93.78-14.58 93.69-14.02L93.69-14.02L93.69-14.02Q93.60-13.46 93.06-12.33L93.06-12.33L93.06-12.33Q92.52-11.21 91.62-10.30L91.62-10.30L91.62-10.30Q90.72-9.40 88.78-8.59L88.78-8.59L88.78-8.59Q86.85-7.79 84.24-7.51L84.24-7.51L84.24-7.51Q83.88-7.51 83.88-7.20L83.88-7.20L83.88-7.20Q83.88-6.79 84.17-6.01L84.17-6.01L84.17-6.01Q84.46-5.22 84.82-4.68L84.82-4.68L84.82-4.68Q85.81-3.42 87.75-3.42L87.75-3.42L87.75-3.42Q89.69-3.42 91.03-4.68L91.03-4.68L91.03-4.68Q91.75-5.35 92.20-6.34L92.20-6.34L92.20-6.34Q92.38-6.71 92.68-6.71L92.68-6.71L92.68-6.71Q92.97-6.71 93.15-6.21L93.15-6.21L93.15-6.21Q93.33-5.71 93.33-5.44ZM103.77 12.46L103.77 12.46L103.77 12.46Q103.77 13.00 103.23 13.00L103.23 13.00L103.19 13.00L103.19 13.00Q101.70 13.00 99.83 11.97L99.83 11.97L99.83 11.97Q97.97 10.93 97.97 9.58L97.97 9.58L97.97 9.58Q97.97 8.23 99.67 4.88L99.67 4.88L99.67 4.88Q101.38 1.53 101.38 0.40L101.38 0.40L101.38 0.40Q101.38-0.81 100.22-3.96L100.22-3.96L100.22-3.96Q98.73-8.05 97.85-10.62L97.85-10.62L97.85-10.62Q96.97-13.18 95.96-15.14L95.96-15.14L95.96-15.14Q94.95-17.10 94.50-17.46L94.50-17.46L94.05-17.77L94.05-17.77Q93.55-18.04 93.55-18.36L93.55-18.36L93.55-18.36Q93.55-18.99 95.51-19.64L95.51-19.64L95.51-19.64Q97.47-20.29 98.95-20.29L98.95-20.29L98.95-20.29Q99.63-20.29 100.08-19.21L100.08-19.21L100.08-19.21Q100.89-17.10 101.83-13.37L101.83-13.37L101.83-13.37Q104.13-5.71 104.72-5.71L104.72-5.71L104.72-5.71Q105.12-5.71 106.36-8.87L106.36-8.87L106.36-8.87Q107.59-12.01 107.59-13.95L107.59-13.95L107.59-13.95Q107.59-17.32 105.61-17.91L105.61-17.91L105.61-17.91Q105.16-18 105.16-18.36L105.16-18.36L105.16-18.36Q105.16-19.17 107.28-19.91L107.28-19.91L107.28-19.91Q109.39-20.65 111.10-20.65L111.10-20.65L111.10-20.65Q112.59-20.65 112.59-18.72L112.59-18.72L112.59-18.72Q112.59-17.23 111.96-15.25L111.96-15.25L111.96-15.25Q111.33-13.28 110.79-12.13L110.79-12.13L110.79-12.13Q110.25-10.98 108.11-6.82L108.11-6.82L108.11-6.82Q105.97-2.65 104.58 0.49L104.58 0.49L104.58 0.49Q103.05 4.27 103.05 8.19L103.05 8.19L103.05 8.19Q103.05 10.26 103.41 11.29L103.41 11.29L103.41 11.29Q103.77 12.33 103.77 12.46ZM117.20-31.97L117.20-31.97L117.20-31.97Q117.54-31.90 117.99-31.50L117.99-31.50L117.99-31.50Q118.44-31.09 118.44-30.04L118.44-30.04L118.44-30.04Q118.44-28.98 118.03-27.47L118.03-27.47L118.03-27.47Q117.63-25.96 117.18-25.20L117.18-25.20L116.77-24.39L116.77-24.39Q116.37-23.71 116.19-23.71L116.19-23.71L116.10-23.71L116.10-23.71Q115.69-23.71 115.69-24.03L115.69-24.03L115.69-24.03Q115.69-26.91 114.57-29.56L114.57-29.56L114.57-29.56Q114.21-30.42 114.21-30.51L114.21-30.51L114.21-30.51Q114.21-31.18 115.00-31.59L115.00-31.59L115.00-31.59Q115.78-31.99 116.32-32.02L116.32-32.02L116.32-32.02Q116.86-32.04 117.20-31.97ZM131.89-6.17L131.89-6.17L131.89-6.17Q131.89-4.23 131.15-2.79L131.15-2.79L131.15-2.79Q130.41-1.35 129.47-0.67L129.47-0.67L129.47-0.67Q128.52 0 127.21 0.40L127.21 0.40L127.21 0.40Q125.50 0.94 124.11 0.94L124.11 0.94L124.11 0.94Q121.19 0.94 119.25-0.20L119.25-0.20L119.25-0.20Q117.31-1.35 117.31-3.87L117.31-3.87L117.31-3.87Q117.31-5.35 118.13-6.30L118.13-6.30L118.13-6.30Q119.38-7.69 121.14-7.69L121.14-7.69L121.14-7.69Q121.68-7.69 121.68-7.20L121.68-7.20L121.68-7.20Q121.68-7.15 121.48-6.50L121.48-6.50L121.48-6.50Q121.27-5.85 121.27-4.86L121.27-4.86L121.27-4.86Q121.27-3.87 122.06-3.10L122.06-3.10L122.06-3.10Q122.85-2.34 123.97-2.34L123.97-2.34L123.97-2.34Q125.10-2.34 125.77-2.72L125.77-2.72L125.77-2.72Q126.45-3.10 126.72-3.69L126.72-3.69L126.72-3.69Q127.13-4.50 127.13-5.22L127.13-5.22L127.13-5.22Q127.13-6.52 125.82-7.47L125.82-7.47L125.82-7.47Q124.52-8.41 122.94-8.96L122.94-8.96L122.94-8.96Q121.36-9.49 120.06-10.75L120.06-10.75L120.06-10.75Q118.75-12.01 118.75-13.90L118.75-13.90L118.75-13.90Q118.75-17.14 120.80-18.77L120.80-18.77L120.80-18.77Q122.85-20.38 126.36-20.38L126.36-20.38L126.36-20.38Q127.89-20.38 129.58-19.96L129.58-19.96L129.58-19.96Q131.26-19.53 131.26-18.52L131.26-18.52L131.26-18.52Q131.26-17.50 130.93-16.65L130.93-16.65L130.93-16.65Q130.59-15.79 130.09-15.79L130.09-15.79L130.09-15.79Q129.82-15.79 129.73-16.00L129.73-16.00L129.73-16.00Q129.64-16.20 129.42-16.47L129.42-16.47L129.42-16.47Q129.19-16.74 128.34-17.17L128.34-17.17L128.34-17.17Q127.48-17.59 126.88-17.59L126.88-17.59L126.88-17.59Q126.27-17.59 126.07-17.57L126.07-17.57L126.07-17.57Q125.86-17.55 125.37-17.44L125.37-17.44L125.37-17.44Q124.88-17.32 124.47-17.10L124.47-17.10L124.47-17.10Q123.43-16.52 123.43-15.39L123.43-15.39L123.43-15.39Q123.43-14.67 123.75-14.33L123.75-14.33L123.75-14.33Q124.06-13.99 124.24-13.81L124.24-13.81L124.24-13.81Q124.42-13.63 124.88-13.39L124.88-13.39L124.88-13.39Q125.32-13.14 125.50-13.05L125.50-13.05L125.50-13.05Q125.69-12.96 126.31-12.67L126.31-12.67L126.31-12.67Q126.94-12.38 127.13-12.29L127.13-12.29L127.13-12.29Q131.89-10.04 131.89-6.17ZM155.47-6.17L155.47-6.17L155.47-6.17Q155.47-4.23 154.73-2.79L154.73-2.79L154.73-2.79Q153.99-1.35 153.04-0.67L153.04-0.67L153.04-0.67Q152.10 0 150.79 0.40L150.79 0.40L150.79 0.40Q149.08 0.94 147.69 0.94L147.69 0.94L147.69 0.94Q144.76 0.94 142.83-0.20L142.83-0.20L142.83-0.20Q140.89-1.35 140.89-3.87L140.89-3.87L140.89-3.87Q140.89-5.35 141.70-6.30L141.70-6.30L141.70-6.30Q142.97-7.69 144.72-7.69L144.72-7.69L144.72-7.69Q145.26-7.69 145.26-7.20L145.26-7.20L145.26-7.20Q145.26-7.15 145.06-6.50L145.06-6.50L145.06-6.50Q144.85-5.85 144.85-4.86L144.85-4.86L144.85-4.86Q144.85-3.87 145.64-3.10L145.64-3.10L145.64-3.10Q146.43-2.34 147.56-2.34L147.56-2.34L147.56-2.34Q148.68-2.34 149.35-2.72L149.35-2.72L149.35-2.72Q150.03-3.10 150.30-3.69L150.30-3.69L150.30-3.69Q150.70-4.50 150.70-5.22L150.70-5.22L150.70-5.22Q150.70-6.52 149.40-7.47L149.40-7.47L149.40-7.47Q148.09-8.41 146.52-8.96L146.52-8.96L146.52-8.96Q144.94-9.49 143.64-10.75L143.64-10.75L143.64-10.75Q142.33-12.01 142.33-13.90L142.33-13.90L142.33-13.90Q142.33-17.14 144.38-18.77L144.38-18.77L144.38-18.77Q146.43-20.38 149.94-20.38L149.94-20.38L149.94-20.38Q151.47-20.38 153.16-19.96L153.16-19.96L153.16-19.96Q154.84-19.53 154.84-18.52L154.84-18.52L154.84-18.52Q154.84-17.50 154.51-16.65L154.51-16.65L154.51-16.65Q154.17-15.79 153.67-15.79L153.67-15.79L153.67-15.79Q153.41-15.79 153.31-16.00L153.31-16.00L153.31-16.00Q153.22-16.20 153-16.47L153-16.47L153-16.47Q152.78-16.74 151.92-17.17L151.92-17.17L151.92-17.17Q151.06-17.59 150.46-17.59L150.46-17.59L150.46-17.59Q149.85-17.59 149.65-17.57L149.65-17.57L149.65-17.57Q149.44-17.55 148.95-17.44L148.95-17.44L148.95-17.44Q148.45-17.32 148.05-17.10L148.05-17.10L148.05-17.10Q147.01-16.52 147.01-15.39L147.01-15.39L147.01-15.39Q147.01-14.67 147.33-14.33L147.33-14.33L147.33-14.33Q147.64-13.99 147.82-13.81L147.82-13.81L147.82-13.81Q148.00-13.63 148.45-13.39L148.45-13.39L148.45-13.39Q148.91-13.14 149.08-13.05L149.08-13.05L149.08-13.05Q149.26-12.96 149.89-12.67L149.89-12.67L149.89-12.67Q150.53-12.38 150.70-12.29L150.70-12.29L150.70-12.29Q155.47-10.04 155.47-6.17ZM156.60-17.55L156.60-17.55L156.73-19.35L156.73-19.35Q156.78-19.75 157.36-19.75L157.36-19.75L158.94-19.75L158.76-23.36L158.76-23.54L158.76-23.54Q158.76-24.57 160.33-25.52L160.33-25.52L160.33-25.52Q161.91-26.46 163.21-26.46L163.21-26.46L163.21-26.46Q163.62-26.46 163.62-26.10L163.62-26.10L163.62-26.05L163.62-26.05Q163.44-24.84 163.26-19.80L163.26-19.80L163.26-19.80Q165.24-19.80 165.78-19.89L165.78-19.89L165.78-19.89Q166.32-19.98 166.36-19.98L166.36-19.98L166.36-19.98Q166.68-19.98 166.68-19.44L166.68-19.44L166.68-19.44Q166.68-18.90 166.18-18.07L166.18-18.07L166.18-18.07Q165.69-17.23 165.10-17.19L165.10-17.19L163.21-17.19L163.21-17.19Q163.17-15.66 163.17-12.04L163.17-12.04L163.17-12.04Q163.17-8.41 163.24-6.08L163.24-6.08L163.24-6.08Q163.30-3.73 163.39-2.54L163.39-2.54L163.39-2.54Q163.48-1.35 163.60-0.63L163.60-0.63L163.60-0.63Q163.71 0.09 163.78 0.40L163.78 0.40L163.78 0.40Q163.84 0.72 163.84 0.81L163.84 0.81L163.84 0.81Q163.84 1.26 163.26 1.30L163.26 1.30L163.26 1.30Q161.50 1.30 159.77 0.81L159.77 0.81L159.77 0.81Q158.04 0.32 158.04-0.90L158.04-0.90L158.04-0.90Q158.98-8.46 158.98-17.14L158.98-17.14L158.98-17.14Q157.77-17.14 157.14-17.05L157.14-17.05L157.09-17.05L157.09-17.05Q156.69-17.05 156.60-17.55ZM171.76-16.96L171.76-16.96L171.76-16.96Q170.59-16.92 170.08-16.90L170.08-16.90L170.08-16.90Q169.56-16.88 169.56-17.14L169.56-17.14L169.56-17.14Q169.56-17.41 169.83-17.68L169.83-17.68L169.83-17.68Q172.71-20.34 179.55-20.34L179.55-20.34L179.55-20.34Q181.89-20.34 183.24-19.93L183.24-19.93L183.69-19.80L183.69-19.80Q184.23-19.57 184.23-19.30L184.23-19.30L184.23-19.30Q184.23-19.08 183.91-18.95L183.91-18.95L183.91-18.95Q182.70-18.59 181.57-17.80L181.57-17.80L181.57-17.80Q180.45-17.01 180.45-16.70L180.45-16.70L180.72-16.38L180.72-16.38Q182.16-15.57 182.95-13.81L182.95-13.81L182.95-13.81Q183.73-12.06 183.82-10.71L183.82-10.71L183.91-9.31L183.91-9.31Q183.91-4.86 181.44-1.98L181.44-1.98L181.44-1.98Q178.97 0.90 174.69 0.90L174.69 0.90L174.69 0.90Q172.53 0.90 170.95 0.14L170.95 0.14L170.95 0.14Q169.38-0.63 168.64-1.60L168.64-1.60L168.64-1.60Q167.89-2.56 167.44-3.78L167.44-3.78L167.44-3.78Q166.91-5.44 166.91-7.22L166.91-7.22L166.91-7.22Q166.91-9 167.51-10.80L167.51-10.80L167.51-10.80Q168.12-12.60 168.91-13.46L168.91-13.46L168.91-13.46Q169.69-14.31 170.69-14.85L170.69-14.85L170.69-14.85Q171.94-15.52 172.71-15.52L172.71-15.52L172.71-15.52Q173.47-15.52 173.47-15.21L173.47-15.21L173.20-14.76L173.20-14.76Q172.22-13.59 171.79-11.70L171.79-11.70L171.79-11.70Q171.36-9.81 171.36-8.35L171.36-8.35L171.36-8.35Q171.36-6.88 171.72-5.44L171.72-5.44L171.72-5.44Q172.08-4.00 172.53-3.31L172.53-3.31L172.53-3.31Q172.98-2.61 173.56-2.25L173.56-2.25L173.56-2.25Q174.42-1.71 175.37-1.71L175.37-1.71L175.37-1.71Q176.31-1.71 177.21-2.45L177.21-2.45L177.21-2.45Q178.11-3.19 178.51-4.41L178.51-4.41L178.51-4.41Q179.32-6.66 179.32-9.04L179.32-9.04L179.32-9.04Q179.32-12.82 177.41-14.89L177.41-14.89L177.41-14.89Q175.50-16.96 171.76-16.96ZM199.76-15.48L199.53-12.06L199.71-10.48L199.71-10.48Q199.71-9.63 198.09-9.63L198.09-9.63L198.09-9.63Q194.81-9.63 194.81-12.11L194.81-12.11L194.81-12.11Q194.81-12.69 195.12-13.72L195.12-13.72L195.12-13.72Q195.44-14.76 195.44-15.52L195.44-15.52L195.44-15.52Q195.44-16.29 194.99-16.85L194.99-16.85L194.99-16.85Q194.54-17.41 193.68-17.41L193.68-17.41L193.68-17.41Q192.83-17.41 192.22-16.81L192.22-16.81L192.22-16.81Q191.61-16.20 191.48-15.57L191.48-15.57L191.30-14.94L191.30-14.94Q191.03-13.54 191.03-10.28L191.03-10.28L191.03-10.28Q191.03-7.02 191.12-5.15L191.12-5.15L191.12-5.15Q191.21-3.28 191.30-2.59L191.30-2.59L191.30-2.59Q191.39-1.89 191.39-1.75L191.39-1.75L191.39-1.75Q191.39-0.63 189.99 0.07L189.99 0.07L189.99 0.07Q188.59 0.77 187.20 0.77L187.20 0.77L187.20 0.77Q185.81 0.77 185.81 0.18L185.81 0.18L186.03-1.21L186.03-1.21Q186.66-5.13 186.66-11.43L186.66-11.43L186.66-11.43Q186.66-17.73 186.21-19.98L186.21-19.98L186.21-19.98Q186.21-20.52 187.16-20.52L187.16-20.52L187.16-20.52Q189.59-20.52 190.40-18.86L190.40-18.86L190.40-18.86Q190.44-18.68 190.55-18.68L190.55-18.68L190.55-18.68Q190.67-18.68 191.16-19.08L191.16-19.08L191.16-19.08Q192.65-20.29 194.67-20.29L194.67-20.29L194.67-20.29Q195.93-20.29 197.19-19.80L197.19-19.80L197.19-19.80Q199.76-18.77 199.76-15.48L199.76-15.48ZM206.06-11.43L206.06-11.43L206.10-10.30L206.10-10.30Q206.10-10.04 206.46-10.04L206.46-10.04L206.46-10.04Q207.90-10.17 208.98-10.78L208.98-10.78L208.98-10.78Q210.06-11.38 210.60-12.15L210.60-12.15L210.60-12.15Q211.68-13.81 211.77-15.03L211.77-15.03L211.81-15.57L211.81-15.57Q211.81-18 209.88-18L209.88-18L209.88-18Q208.44-18 207.54-16.74L207.54-16.74L207.54-16.74Q206.06-14.76 206.06-11.43ZM215.87-5.44L215.87-5.44L215.87-5.44Q215.87-3.73 215.17-2.45L215.17-2.45L215.17-2.45Q214.47-1.17 213.59-0.56L213.59-0.56L213.59-0.56Q212.72 0.04 211.55 0.40L211.55 0.40L211.55 0.40Q210.06 0.85 208.71 0.85L208.71 0.85L208.71 0.85Q204.93 0.85 203.13-1.98L203.13-1.98L203.13-1.98Q201.33-4.81 201.33-9.20L201.33-9.20L201.33-9.20Q201.33-13.59 203.56-17.01L203.56-17.01L203.56-17.01Q205.78-20.43 210.24-20.43L210.24-20.43L210.24-20.43Q214.29-20.43 215.73-17.59L215.73-17.59L215.73-17.59Q216.31-16.52 216.31-15.55L216.31-15.55L216.31-15.55Q216.31-14.58 216.22-14.02L216.22-14.02L216.22-14.02Q216.14-13.46 215.59-12.33L215.59-12.33L215.59-12.33Q215.06-11.21 214.16-10.30L214.16-10.30L214.16-10.30Q213.25-9.40 211.32-8.59L211.32-8.59L211.32-8.59Q209.39-7.79 206.78-7.51L206.78-7.51L206.78-7.51Q206.42-7.51 206.42-7.20L206.42-7.20L206.42-7.20Q206.42-6.79 206.71-6.01L206.71-6.01L206.71-6.01Q207-5.22 207.36-4.68L207.36-4.68L207.36-4.68Q208.35-3.42 210.28-3.42L210.28-3.42L210.28-3.42Q212.22-3.42 213.57-4.68L213.57-4.68L213.57-4.68Q214.29-5.35 214.74-6.34L214.74-6.34L214.74-6.34Q214.92-6.71 215.21-6.71L215.21-6.71L215.21-6.71Q215.50-6.71 215.69-6.21L215.69-6.21L215.69-6.21Q215.87-5.71 215.87-5.44ZM232.02-6.17L232.02-6.17L232.02-6.17Q232.02-4.23 231.28-2.79L231.28-2.79L231.28-2.79Q230.53-1.35 229.59-0.67L229.59-0.67L229.59-0.67Q228.65 0 227.34 0.40L227.34 0.40L227.34 0.40Q225.63 0.94 224.24 0.94L224.24 0.94L224.24 0.94Q221.31 0.94 219.38-0.20L219.38-0.20L219.38-0.20Q217.44-1.35 217.44-3.87L217.44-3.87L217.44-3.87Q217.44-5.35 218.25-6.30L218.25-6.30L218.25-6.30Q219.51-7.69 221.27-7.69L221.27-7.69L221.27-7.69Q221.81-7.69 221.81-7.20L221.81-7.20L221.81-7.20Q221.81-7.15 221.60-6.50L221.60-6.50L221.60-6.50Q221.40-5.85 221.40-4.86L221.40-4.86L221.40-4.86Q221.40-3.87 222.19-3.10L222.19-3.10L222.19-3.10Q222.98-2.34 224.10-2.34L224.10-2.34L224.10-2.34Q225.23-2.34 225.90-2.72L225.90-2.72L225.90-2.72Q226.58-3.10 226.84-3.69L226.84-3.69L226.84-3.69Q227.25-4.50 227.25-5.22L227.25-5.22L227.25-5.22Q227.25-6.52 225.95-7.47L225.95-7.47L225.95-7.47Q224.64-8.41 223.06-8.96L223.06-8.96L223.06-8.96Q221.49-9.49 220.19-10.75L220.19-10.75L220.19-10.75Q218.88-12.01 218.88-13.90L218.88-13.90L218.88-13.90Q218.88-17.14 220.93-18.77L220.93-18.77L220.93-18.77Q222.98-20.38 226.49-20.38L226.49-20.38L226.49-20.38Q228.02-20.38 229.70-19.96L229.70-19.96L229.70-19.96Q231.39-19.53 231.39-18.52L231.39-18.52L231.39-18.52Q231.39-17.50 231.05-16.65L231.05-16.65L231.05-16.65Q230.72-15.79 230.22-15.79L230.22-15.79L230.22-15.79Q229.95-15.79 229.86-16.00L229.86-16.00L229.86-16.00Q229.77-16.20 229.55-16.47L229.55-16.47L229.55-16.47Q229.32-16.74 228.47-17.17L228.47-17.17L228.47-17.17Q227.61-17.59 227.00-17.59L227.00-17.59L227.00-17.59Q226.40-17.59 226.19-17.57L226.19-17.57L226.19-17.57Q225.99-17.55 225.50-17.44L225.50-17.44L225.50-17.44Q225-17.32 224.59-17.10L224.59-17.10L224.59-17.10Q223.56-16.52 223.56-15.39L223.56-15.39L223.56-15.39Q223.56-14.67 223.88-14.33L223.88-14.33L223.88-14.33Q224.19-13.99 224.37-13.81L224.37-13.81L224.37-13.81Q224.55-13.63 225-13.39L225-13.39L225-13.39Q225.45-13.14 225.63-13.05L225.63-13.05L225.63-13.05Q225.81-12.96 226.44-12.67L226.44-12.67L226.44-12.67Q227.07-12.38 227.25-12.29L227.25-12.29L227.25-12.29Q232.02-10.04 232.02-6.17Z" fill="#eb6c6c"></path></g></g><style>text {
  font-size: 64px;
  font-family: Arial Black;
  dominant-baseline: central;
  text-anchor: middle;
}</style></svg>